<?xml version="1.0" encoding="UTF-8"?>
<svg version="1.1" xmlns="http://www.w3.org/2000/svg" width="994" height="312">
<path d="M0 0 C328.02 0 656.04 0 994 0 C994 102.96 994 205.92 994 312 C665.98 312 337.96 312 0 312 C0 209.04 0 106.08 0 0 Z " fill="#FEFEFE" transform="translate(0,0)"/>
<path d="M0 0 C18.09330568 14.37181385 29.66728375 32.69329194 33.625 55.625 C34.04063457 61.0996825 34.07302396 66.55301676 34.05859375 72.0390625 C34.06316996 73.58597031 34.06847973 75.1328761 34.07447815 76.67977905 C34.08334162 79.89858338 34.08106215 83.11713865 34.07104492 86.3359375 C34.05953006 90.43206939 34.07983922 94.52734232 34.10896206 98.62336159 C34.12742151 101.80983808 34.12701294 104.99611202 34.12132454 108.18262863 C34.12117269 109.69190048 34.12710209 111.20118728 34.13961601 112.71040726 C34.22849409 125.17564225 32.64631433 136.25766608 23.72265625 145.62109375 C14.81948934 154.14873165 6.22277535 156.24309706 -5.91015625 156.05078125 C-7.07002548 156.04749313 -8.22989471 156.04420502 -9.4249115 156.04081726 C-11.85616743 156.03045649 -14.28739987 156.01061003 -16.71850586 155.98168945 C-20.45765632 155.9372605 -24.196164 155.92019382 -27.93554688 155.90820312 C-30.30209271 155.8947927 -32.66863058 155.87987352 -35.03515625 155.86328125 C-36.71932396 155.85220085 -36.71932396 155.85220085 -38.43751526 155.84089661 C-39.46626266 155.82806137 -40.49501007 155.81522614 -41.55493164 155.80200195 C-42.91866661 155.78723564 -42.91866661 155.78723564 -44.30995178 155.77217102 C-46.375 155.625 -46.375 155.625 -47.375 154.625 C-47.50125449 151.80818591 -47.56373239 149.01735579 -47.578125 146.19921875 C-47.58382507 145.34125198 -47.58952515 144.48328522 -47.59539795 143.59931946 C-47.60487216 141.7725244 -47.61139148 139.94571207 -47.61523438 138.11889648 C-47.62482724 135.3621471 -47.65577825 132.60617989 -47.6875 129.84960938 C-47.77667315 115.05132044 -46.59594564 100.73275723 -36.19140625 89.28515625 C-26.85937081 80.75587655 -14.75971158 77.10409909 -2.375 76.625 C-2.375 74.645 -2.375 72.665 -2.375 70.625 C-6.005 70.295 -9.635 69.965 -13.375 69.625 C-13.375 68.965 -13.375 68.305 -13.375 67.625 C-14.22320312 67.521875 -15.07140625 67.41875 -15.9453125 67.3125 C-25.18258672 65.46083683 -33.93458974 60.45561687 -39.765625 53.0546875 C-45.53722245 44.3412564 -49.375 33.20297353 -49.375 22.625 C-50.695 22.955 -52.015 23.285 -53.375 23.625 C-53.48457031 24.23085937 -53.59414062 24.83671875 -53.70703125 25.4609375 C-56.1950383 38.60894221 -59.50226395 50.92681116 -70.375 59.625 C-73.27784258 61.51905332 -76.25701604 63.11576308 -79.375 64.625 C-80.01953125 64.94597656 -80.6640625 65.26695312 -81.328125 65.59765625 C-84.79419003 67.2176649 -87.55088018 67.97264726 -91.375 67.625 C-91.375 68.285 -91.375 68.945 -91.375 69.625 C-95.83 70.615 -95.83 70.615 -100.375 71.625 C-100.375 72.945 -100.375 74.265 -100.375 75.625 C-99.323125 75.893125 -98.27125 76.16125 -97.1875 76.4375 C-96.45917969 76.62441406 -95.73085937 76.81132812 -94.98046875 77.00390625 C-93.09745056 77.45278165 -91.2018852 77.85008302 -89.30078125 78.21484375 C-77.2286696 80.62926608 -68.60111105 85.47840527 -61.375 95.625 C-54.31465815 108.3950096 -55.20208246 123.11212812 -55.24462891 137.2980957 C-55.25010845 139.48069849 -55.24458163 141.66310559 -55.23828125 143.84570312 C-55.23894017 145.23697962 -55.24021746 146.62825599 -55.2421875 148.01953125 C-55.24331543 149.26581299 -55.24444336 150.51209473 -55.24560547 151.79614258 C-55.375 154.625 -55.375 154.625 -56.375 155.625 C-58.02906024 155.74988286 -59.68839314 155.80568745 -61.34692383 155.83374023 C-62.40925735 155.85303085 -63.47159088 155.87232147 -64.56611633 155.89219666 C-69.47397628 155.94998279 -74.38168455 155.99931288 -79.28979492 156.0300293 C-81.86870798 156.05151351 -84.44755005 156.08550034 -87.02612305 156.13256836 C-90.75342244 156.19999713 -94.47920555 156.22711066 -98.20703125 156.24609375 C-99.91400932 156.28783974 -99.91400932 156.28783974 -101.6554718 156.33042908 C-112.29979597 156.30350789 -120.32123908 152.48334231 -128.375 145.625 C-135.61111346 136.90498308 -138.45986545 126.90787987 -138.53613281 115.68994141 C-138.54574036 114.54079254 -138.5553479 113.39164368 -138.56524658 112.20767212 C-138.56949646 110.97640594 -138.57374634 109.74513977 -138.578125 108.4765625 C-138.58382507 107.19123627 -138.58952515 105.90591003 -138.59539795 104.58163452 C-138.60587665 101.85992035 -138.61173786 99.13823538 -138.61523438 96.41650391 C-138.61959798 93.65660222 -138.63341178 90.89701686 -138.65625 88.13720703 C-138.89858279 58.26559559 -135.80709407 30.70042397 -114.16015625 8.18359375 C-82.25533323 -21.12588602 -35.36259197 -25.5496988 0 0 Z " fill="#676DFE" transform="translate(204.375,87.375)"/>
<path d="M0 0 C2.16332041 1.55315311 4.03825962 3.18539015 6 5 C6.33 3.02 6.66 1.04 7 -1 C11.95 -1 16.9 -1 22 -1 C22.09074422 7.17186598 22.16396927 15.3433334 22.20724869 23.51556969 C22.22803153 27.3111903 22.25617593 31.10644524 22.30175781 34.90185547 C22.34555183 38.57179937 22.36920687 42.24139388 22.37950897 45.91157913 C22.38684076 47.30449541 22.40115646 48.69739483 22.42292023 50.09016037 C22.59639368 61.66274658 21.04353065 70.71915522 12.91796875 79.3125 C5.49190726 85.84622416 -4.15765185 87.48258939 -13.76953125 87.32421875 C-21.70693624 86.5275989 -28.9734195 83.66011432 -36 80 C-34.7702107 75.93223538 -33.238962 72.60074162 -31 69 C-30.11699219 69.3609375 -29.23398437 69.721875 -28.32421875 70.09375 C-19.35158299 73.56329766 -10.85959798 76.43284939 -1.5625 72.375 C2.149737 70.17967299 4.21827029 68.00889184 6 64 C6.30211902 60.63640819 6.23945886 57.36572727 6 54 C5.52949219 54.34933594 5.05898438 54.69867188 4.57421875 55.05859375 C3.95160156 55.51363281 3.32898438 55.96867187 2.6875 56.4375 C2.07261719 56.88996094 1.45773437 57.34242188 0.82421875 57.80859375 C-4.85804825 61.51971031 -13.44425944 60.73961368 -20 60 C-26.89559992 58.04112257 -32.27107729 54.1294167 -36 48 C-40.71553119 39.06996282 -41.49559841 29.10409243 -39.421875 19.25390625 C-38.73559994 17.0892195 -37.9373308 15.06648745 -37 13 C-36.5875 11.948125 -36.175 10.89625 -35.75 9.8125 C-28.16312433 -2.38069305 -12.70204512 -6.94812725 0 0 Z " fill="#070F49" transform="translate(518,144)"/>
<path d="M0 0 C5.28 0 10.56 0 16 0 C21.97119439 11.14704526 27.70392071 22.34784172 32.99707031 33.83251953 C34.81076397 37.75218173 36.65782268 41.65616668 38.5 45.5625 C39.17721816 47.00123863 39.85431463 48.44003455 40.53125 49.87890625 C41.25828125 51.42384766 41.25828125 51.42384766 42 53 C42.92210098 51.2111241 43.83733282 49.41870729 44.75 47.625 C45.51570312 46.12839844 45.51570312 46.12839844 46.296875 44.6015625 C47.55647149 41.93792038 48.68081231 39.33103127 49.75 36.59375 C52.64645681 29.23597213 55.97761001 22.07095254 59.25 14.875 C59.90645131 13.42717459 60.5627028 11.97925857 61.21875 10.53125 C62.80983508 7.01961272 64.40499311 3.50986811 66 0 C71.94 0 77.88 0 84 0 C84 28.71 84 57.42 84 87 C79.38 87 74.76 87 70 87 C69.67 66.87 69.34 46.74 69 26 C65.37 33.92 61.74 41.84 58 50 C49.1827957 68.8172043 49.1827957 68.8172043 48 70 C45.81360547 70.07258946 43.62499611 70.08373783 41.4375 70.0625 C39.64119141 70.04896484 39.64119141 70.04896484 37.80859375 70.03515625 C36.41833984 70.01775391 36.41833984 70.01775391 35 70 C33.21645464 66.48300888 31.43858251 62.96320972 29.66552734 59.44091797 C28.77076944 57.66619549 27.8717624 55.8936173 26.97265625 54.12109375 C24.01142969 48.23191284 21.21256685 42.38460379 18.93066406 36.19677734 C17.82548262 33.44613025 17.82548262 33.44613025 15 29 C14.67 47.81 14.34 66.62 14 86 C9.38 86 4.76 86 0 86 C0 57.62 0 29.24 0 0 Z " fill="#0A134D" transform="translate(683,118)"/>
<path d="M0 0 C5.28 0 10.56 0 16 0 C19.19463599 7.01351119 22.05687493 14.11610169 24.8125 21.3125 C25.25408447 22.46258545 25.69566895 23.6126709 26.15063477 24.79760742 C28.97574617 32.1994507 31.66634908 39.6338206 34.22998047 47.12963867 C37.40949922 56.3465134 40.93345757 65.43616904 44.44506836 74.53051758 C44.90534424 75.7295874 45.36562012 76.92865723 45.83984375 78.1640625 C46.46427368 79.77982178 46.46427368 79.77982178 47.10131836 81.42822266 C48 84 48 84 48 86 C42.39 86 36.78 86 31 86 C29.99422987 83.23113877 28.99519853 80.46015896 28 77.6875 C27.71382813 76.90181641 27.42765625 76.11613281 27.1328125 75.30664062 C26.86210937 74.54931641 26.59140625 73.79199219 26.3125 73.01171875 C26.06113281 72.31522217 25.80976563 71.61872559 25.55078125 70.90112305 C25 69 25 69 25 66 C9.16 66.495 9.16 66.495 -7 67 C-8.93285685 72.87770544 -8.93285685 72.87770544 -10.85913086 78.75756836 C-11.10026611 79.48596924 -11.34140137 80.21437012 -11.58984375 80.96484375 C-11.83597412 81.7137085 -12.08210449 82.46257324 -12.33569336 83.23413086 C-13 85 -13 85 -14 86 C-16.69654854 86.07319621 -19.36691458 86.09242537 -22.0625 86.0625 C-22.82111328 86.05798828 -23.57972656 86.05347656 -24.36132812 86.04882812 C-26.24091871 86.0370068 -28.12046899 86.01907078 -30 86 C-27.40388189 76.74980946 -24.14655011 67.73727686 -20.9375 58.6875 C-19.7694138 55.38331287 -18.60317525 52.07847587 -17.4375 48.7734375 C-17.00104408 47.53660973 -17.00104408 47.53660973 -16.55577087 46.27479553 C-14.70265466 41.0161783 -12.87127242 35.75059121 -11.0625 30.4765625 C-10.83655655 29.81805801 -10.6106131 29.15955353 -10.37782288 28.48109436 C-9.33069249 25.42641881 -8.28723877 22.37053526 -7.24780273 19.31323242 C-5.01616717 12.78950646 -2.61702464 6.37936846 0 0 Z " fill="#071049" transform="translate(308,118)"/>
<path d="M0 0 C2.04010098 1.55847358 3.35843581 2.98776003 5 5 C5.47953125 5.4228125 5.9590625 5.845625 6.453125 6.28125 C12.29246465 12.76940517 13.72423536 22.53008673 13.359375 30.921875 C12.20111959 40.84258442 8.65771059 48.30394444 0.86328125 54.6796875 C-6.79291762 60.1048347 -15.88995499 60.8178594 -25 60 C-28.58013359 59.06693402 -31.73178007 57.72220981 -35 56 C-35.64839844 55.66097656 -36.29679687 55.32195312 -36.96484375 54.97265625 C-43.32600971 51.06130475 -47.26873213 44.18026091 -49.375 37.125 C-51.42003771 26.51636688 -50.32288787 15.91432729 -44.52734375 6.64453125 C-33.52386156 -7.22037657 -14.71254503 -8.31972885 0 0 Z " fill="#09114A" transform="translate(457,146)"/>
<path d="M0 0 C6.86522375 5.25788962 9.93719288 11.74877152 12 20 C12 24.29 12 28.58 12 33 C-2.19 33 -16.38 33 -31 33 C-28.05625571 42.00952191 -28.05625571 42.00952191 -22 47 C-14.42089349 49.52636884 -7.09931419 48.23828367 0 45 C1.32 44.34 2.64 43.68 4 43 C5.98 45.31 7.96 47.62 10 50 C7.73242148 54.53515705 6.66280034 55.05245108 2.25 57.1875 C1.22390625 57.69667969 0.1978125 58.20585937 -0.859375 58.73046875 C-9.42714984 62.19381057 -18.92865757 61.95665978 -27.61328125 59.0390625 C-34.17253398 56.18347948 -39.75880113 51.44470938 -43 45 C-46.43745189 35.11277088 -46.70866992 23.13739005 -42.9375 13.3125 C-38.97202815 5.25902768 -33.36538816 0.20816948 -25 -3 C-16.54705885 -5.61304612 -7.42320945 -4.82508614 0 0 Z " fill="#070F47" transform="translate(932,145)"/>
<path d="M0 0 C4.97537653 5.11753015 7.32098605 10.72896725 7.30102539 17.83496094 C7.30094986 18.73559265 7.30087433 19.63622437 7.30079651 20.56414795 C7.29563522 21.52782288 7.29047394 22.4914978 7.28515625 23.484375 C7.2837413 24.47753723 7.28232635 25.47069946 7.28086853 26.49395752 C7.27527588 29.66266912 7.2627247 32.83130979 7.25 36 C7.24498405 38.14973856 7.24042131 40.29947823 7.23632812 42.44921875 C7.22530885 47.71617312 7.20804923 52.98307454 7.1875 58.25 C3.2275 58.25 -0.7325 58.25 -4.8125 58.25 C-5.3075 55.28 -5.3075 55.28 -5.8125 52.25 C-6.23660156 52.65992188 -6.66070313 53.06984375 -7.09765625 53.4921875 C-12.91264859 58.83431233 -18.50005536 60.77884464 -26.41015625 60.5625 C-32.31807147 59.7939907 -37.91462459 57.76418744 -41.875 53.1875 C-45.75968927 47.29780981 -45.41173251 41.10319437 -44.8125 34.25 C-42.54945014 29.28869839 -39.55780221 26.85526396 -34.8125 24.25 C-28.78032008 22.04653531 -23.2534746 22.01164365 -16.875 22.125 C-15.4199707 22.13853516 -15.4199707 22.13853516 -13.93554688 22.15234375 C-11.56093593 22.17573893 -9.18685224 22.20851824 -6.8125 22.25 C-7.12432069 20.83318366 -7.43698737 19.41655349 -7.75 18 C-7.92402344 17.21109375 -8.09804688 16.4221875 -8.27734375 15.609375 C-8.760056 13.48121297 -9.27413178 11.36467158 -9.8125 9.25 C-16.40532829 7.54862496 -23.18683627 7.89088949 -29.8125 9.25 C-29.8125 9.91 -29.8125 10.57 -29.8125 11.25 C-32.1225 12.24 -34.4325 13.23 -36.8125 14.25 C-37.65069158 12.62750059 -38.4829116 11.00191503 -39.3125 9.375 C-39.7765625 8.47007812 -40.240625 7.56515625 -40.71875 6.6328125 C-41.8125 4.25 -41.8125 4.25 -41.8125 2.25 C-28.25402065 -4.89752835 -13.88519228 -8.63967519 0 0 Z " fill="#081148" transform="translate(659.8125,145.75)"/>
<path d="M0 0 C5.75197526 4.3061804 8.76822274 9.61279591 10.16015625 16.6171875 C10.41679808 19.98409453 10.39398853 23.3320036 10.35546875 26.70703125 C10.35263885 27.65155655 10.34980896 28.59608185 10.34689331 29.56922913 C10.33576309 32.56451474 10.31067185 35.55949336 10.28515625 38.5546875 C10.2751172 40.5943967 10.26599297 42.63411062 10.2578125 44.67382812 C10.23584721 49.6550649 10.20136701 54.63607428 10.16015625 59.6171875 C5.87015625 59.6171875 1.58015625 59.6171875 -2.83984375 59.6171875 C-3.16984375 57.9671875 -3.49984375 56.3171875 -3.83984375 54.6171875 C-4.72671875 55.4009375 -5.61359375 56.1846875 -6.52734375 56.9921875 C-11.52286361 61.40683296 -16.51157509 62.06934693 -22.98828125 61.9296875 C-28.8717956 61.2849188 -33.82056068 59.14404624 -37.77734375 54.6796875 C-41.30459614 49.44225213 -42.79059268 44.99072662 -41.83984375 38.6171875 C-40.0804009 33.37690095 -37.65234961 29.50469101 -32.83984375 26.6171875 C-26.27701528 23.76199765 -20.36906791 23.22676949 -13.27734375 23.4296875 C-11.90739258 23.44999023 -11.90739258 23.44999023 -10.50976562 23.47070312 C-8.28581116 23.50563435 -6.06316423 23.55467164 -3.83984375 23.6171875 C-4.14019531 22.35777344 -4.44054687 21.09835938 -4.75 19.80078125 C-4.91894775 19.09236084 -5.08789551 18.38394043 -5.26196289 17.65405273 C-6.03092034 14.94369702 -7.14159461 12.85887636 -8.83984375 10.6171875 C-14.42368988 8.75590546 -20.15131519 9.47948179 -25.83984375 10.6171875 C-25.83984375 11.2771875 -25.83984375 11.9371875 -25.83984375 12.6171875 C-28.14984375 13.6071875 -30.45984375 14.5971875 -32.83984375 15.6171875 C-33.70611774 14.01952647 -34.5575084 12.41378806 -35.40234375 10.8046875 C-35.87800781 9.91136719 -36.35367188 9.01804688 -36.84375 8.09765625 C-37.83984375 5.6171875 -37.83984375 5.6171875 -36.83984375 2.6171875 C-34.2578125 1.265625 -34.2578125 1.265625 -31.02734375 -0.0078125 C-29.96902344 -0.43320313 -28.91070313 -0.85859375 -27.8203125 -1.296875 C-18.55661369 -4.67211519 -8.72275861 -5.02090495 0 0 Z " fill="#081049" transform="translate(821.83984375,144.3828125)"/>
<path d="M0 0 C4.95 0 9.9 0 15 0 C15.74765625 2.04960937 16.4953125 4.09921875 17.265625 6.2109375 C18.00337859 8.23011411 18.74165551 10.24909866 19.47998047 12.26806641 C19.98671078 13.65458594 20.49291019 15.04129965 20.99853516 16.42822266 C21.73194782 18.43966136 22.46709967 20.45045345 23.203125 22.4609375 C23.44212524 23.11511658 23.68112549 23.76929565 23.92736816 24.44329834 C25.60525894 29.00689057 27.40219888 33.50651275 29.32714844 37.97119141 C30 40 30 40 30 44 C30.66 44 31.32 44 32 44 C32.17438599 42.97084473 32.17438599 42.97084473 32.35229492 41.92089844 C33.09454365 38.57364484 34.18304879 35.48512406 35.36328125 32.265625 C35.5965361 31.62816345 35.82979095 30.9907019 36.07011414 30.33392334 C36.56343074 28.98856113 37.05856865 27.64386553 37.55541992 26.29980469 C38.30437466 24.27199947 39.04616852 22.24168256 39.78710938 20.2109375 C42.29859188 13.36356096 44.93008455 6.62110031 48 0 C52.62 0 57.24 0 62 0 C59.78664064 7.80118463 57.05828966 15.280107 54.0625 22.8125 C53.58594971 24.01648438 53.10939941 25.22046875 52.6184082 26.4609375 C49.28024651 34.87316244 45.89041907 43.26492609 42.45236206 51.6368103 C41.71147876 53.4415882 40.97396862 55.24774968 40.23657227 57.05395508 C30.15850795 81.42074603 30.15850795 81.42074603 20.25 86.375 C15.49744647 87.2889526 10.82336862 87.15448512 6 87 C7.08284024 77.79585799 7.08284024 77.79585799 9 75 C10.95703125 74.56640625 10.95703125 74.56640625 13.3125 74.25 C16.30173408 73.73811177 17.63102645 73.3897024 19.73828125 71.1640625 C22.4142538 66.74682331 23.45350451 63.63633761 22.62353516 58.38232422 C21.27277466 53.22150946 18.86889855 48.44650508 16.625 43.625 C13.56184382 36.9881616 10.70144348 30.53010176 8.73339844 23.48291016 C7.36502247 18.85029245 5.56010582 14.37516398 3.8125 9.875 C3.44447266 8.91851562 3.07644531 7.96203125 2.69726562 6.9765625 C1.80145345 4.64977762 0.90119754 2.32470435 0 0 Z " fill="#081049" transform="translate(549,143)"/>
<path d="M0 0 C4.62 0 9.24 0 14 0 C14 5.61 14 11.22 14 17 C19.28 17 24.56 17 30 17 C30 20.96 30 24.92 30 29 C24.72 29 19.44 29 14 29 C14.09702109 33.76935242 14.19980155 38.53785296 14.31738281 43.30664062 C14.35562358 44.92830859 14.39048503 46.55005996 14.421875 48.171875 C14.46763257 50.50551117 14.52560816 52.83857562 14.5859375 55.171875 C14.59748871 55.89493835 14.60903992 56.61800171 14.62094116 57.36297607 C14.72769706 61.0186488 14.86814607 63.94854138 17 67 C19.52475462 68.26237731 21.31200466 68.09856404 24.125 68.0625 C25.03507813 68.05347656 25.94515625 68.04445313 26.8828125 68.03515625 C27.58148437 68.02355469 28.28015625 68.01195312 29 68 C29.335939 69.4577353 29.66866624 70.91621106 30 72.375 C30.2784375 73.59316406 30.2784375 73.59316406 30.5625 74.8359375 C31 77 31 77 31 79 C22.95780325 81.33954814 15.63036123 82.34087436 7.72265625 78.9765625 C4.10140107 76.92369675 2.47428169 74.13712809 0.91064453 70.38818359 C-0.21628655 66.19527486 -0.25101011 62.41940418 -0.1953125 58.1015625 C-0.1924826 57.26660248 -0.18965271 56.43164246 -0.18673706 55.57138062 C-0.17560301 52.92243709 -0.15051127 50.27384016 -0.125 47.625 C-0.11496143 45.82161949 -0.10583712 44.01823364 -0.09765625 42.21484375 C-0.0756859 37.80976367 -0.04120321 33.40494047 0 29 C-3.63 29 -7.26 29 -11 29 C-11 25.04 -11 21.08 -11 17 C-7.37 17 -3.74 17 0 17 C0 11.39 0 5.78 0 0 Z " fill="#060F48" transform="translate(851,125)"/>
<path d="M0 0 C0.12036664 5.77759884 -0.1679418 11.27959989 -1 17 C-1.65226562 16.96519531 -2.30453125 16.93039063 -2.9765625 16.89453125 C-8.43739754 16.72539034 -12.36718476 16.76780332 -17 20 C-21.12061742 24.04354995 -22.56597882 26.55585446 -22.71894836 32.3210144 C-22.71304939 33.48855759 -22.71304939 33.48855759 -22.70703125 34.6796875 C-22.72971321 35.89883347 -22.72971321 35.89883347 -22.75285339 37.14260864 C-22.79559624 39.7203576 -22.80455489 42.29693259 -22.8125 44.875 C-22.83565491 46.63023925 -22.86102232 48.3854508 -22.88867188 50.140625 C-22.95139108 54.42718649 -22.98383109 58.71302042 -23 63 C-27.62 63 -32.24 63 -37 63 C-37 42.87 -37 22.74 -37 2 C-32.38 2 -27.76 2 -23 2 C-22.67 4.31 -22.34 6.62 -22 9 C-21.01 7.88625 -21.01 7.88625 -20 6.75 C-14.09819614 0.93108665 -8.14392494 -0.67866041 0 0 Z " fill="#060E46" transform="translate(404,141)"/>
<path d="M0 0 C0.9796875 -0.00257813 1.959375 -0.00515625 2.96875 -0.0078125 C5.5 0.125 5.5 0.125 7.5 1.125 C7.5 1.785 7.5 2.445 7.5 3.125 C8.10328125 3.38667969 8.7065625 3.64835938 9.328125 3.91796875 C13.15649891 6.04560821 14.93949158 9.09368659 16.5 13.125 C17.5023577 20.57771511 17.06589746 27.46865808 13.5 34.125 C9.78152772 38.17874437 6.32452722 39.97037905 0.8125 40.4375 C-3.94504787 40.34988402 -7.7068643 39.00980165 -11.5 36.125 C-16.70030071 29.66583687 -17.31620115 22.11053553 -16.5 14.125 C-15.05876237 9.75847806 -13.00781304 6.14484955 -9.5 3.125 C-8.84 3.125 -8.18 3.125 -7.5 3.125 C-7.5 2.465 -7.5 1.805 -7.5 1.125 C-4.89080172 -0.17959914 -2.91057385 -0.0076594 0 0 Z " fill="#FDFDFD" transform="translate(438.5,153.875)"/>
<path d="M0 0 C1.60875 -0.00386719 1.60875 -0.00386719 3.25 -0.0078125 C6 0.125 6 0.125 8 1.125 C8 1.785 8 2.445 8 3.125 C8.763125 3.3725 9.52625 3.62 10.3125 3.875 C13.34938511 5.2875047 14.27069536 6.30185435 16 9.125 C16.63046424 12.58192341 16.50956655 16.05396895 16.5 19.5625 C16.52835938 20.50416016 16.55671875 21.44582031 16.5859375 22.41601562 C16.59916797 27.10290794 16.58175727 29.37247815 13.64453125 33.171875 C8.1724179 37.21331765 3.77449429 39.11605828 -3 38.125 C-8.56715792 36.05096077 -12.62923311 32.86653379 -15.3125 27.5 C-16.53596576 21.49389536 -16.89964155 15.63452643 -14.8125 9.8125 C-10.5038553 3.42381993 -8.05437412 -0.01936148 0 0 Z " fill="#FCFCFD" transform="translate(509,153.875)"/>
<path d="M0 0 C0.66 0 1.32 0 2 0 C5.96 11.88 9.92 23.76 14 36 C6.08 36 -1.84 36 -10 36 C-8.77580216 30.4911097 -7.60648831 25.6929209 -5.7890625 20.4609375 C-4.5541739 16.60955225 -3.64865785 12.68269261 -2.6953125 8.75390625 C-1.94408367 5.77853363 -1.0422772 2.88630609 0 0 Z " fill="#FAFAFB" transform="translate(315,136)"/>
<path d="M0 0 C3.74422745 0.75989856 6.09082629 2.11008023 8.4296875 5.1171875 C9.47254663 8.62498639 9.76359793 11.84692329 9.1171875 15.4296875 C7.19414916 18.84152972 5.77659073 20.85926764 1.9921875 22.16015625 C-2.23670458 22.88163953 -4.40530188 22.6641018 -8.3203125 20.7421875 C-11.92136514 17.49245706 -12.66288133 15.88673148 -13.3828125 11.1171875 C-12.80241556 6.83676008 -11.73009676 4.84699554 -8.796875 1.75390625 C-5.87454361 -0.26786996 -3.47359631 -0.29239026 0 0 Z " fill="#6469FE" transform="translate(236.8828125,67.5703125)"/>
<path d="M0 0 C4.01990532 2.99354652 6.13039734 6.37519342 8 11 C8 12.32 8 13.64 8 15 C-1.57 15 -11.14 15 -21 15 C-20.04094092 8.28658646 -19.40542171 5.65644289 -15 1 C-10.562162 -2.04308892 -5.01967188 -1.27352466 0 0 Z " fill="#FAFAFB" transform="translate(923,154)"/>
<path d="M0 0 C0.74958984 0.00451172 1.49917969 0.00902344 2.27148438 0.01367188 C4.11852383 0.02543646 5.96552213 0.04337135 7.8125 0.0625 C8.42921527 4.29140471 8.66895425 7.68112217 6.359375 11.40625 C2.40843335 15.98801427 0.17164938 17.87224602 -6.0625 18.375 C-9.36037177 18.34463286 -10.19124881 18.06010714 -13.125 16.1875 C-15.55504434 13.68381796 -16.10241449 12.70064131 -16.5625 9.25 C-16.06288516 5.0032739 -14.44446061 3.71351445 -11.1875 1.0625 C-7.42449626 -0.19183458 -3.91539091 -0.04445422 0 0 Z " fill="#F7F7F9" transform="translate(645.1875,176.9375)"/>
<path d="M0 0 C0.70189453 0.00451172 1.40378906 0.00902344 2.12695312 0.01367188 C3.85550538 0.02543073 5.58401365 0.04336546 7.3125 0.0625 C7.8000607 4.04424574 8.16356072 7.5773156 6.1171875 11.1484375 C2.52259004 15.42944051 -0.44752642 17.81813925 -6.125 18.4375 C-10.26905564 18.00128362 -11.77880272 16.97119728 -14.6875 14.0625 C-16.13180855 11.17388291 -16.06438506 9.26602299 -15.6875 6.0625 C-10.93765244 0.28565838 -7.11053261 -0.08630899 0 0 Z " fill="#F8F8FA" transform="translate(810.6875,176.9375)"/>
<path d="M0 0 C0 28.71 0 57.42 0 87 C-4.62 87 -9.24 87 -14 87 C-14 66.54 -14 46.08 -14 25 C-13.67 25 -13.34 25 -13 25 C-13 44.8 -13 64.6 -13 85 C-9.37 85 -5.74 85 -2 85 C-2 57.61 -2 30.22 -2 2 C-6.62 2 -11.24 2 -16 2 C-16 1.67 -16 1.34 -16 1 C-13.70839646 0.83246763 -11.41671509 0.66599948 -9.125 0.5 C-7.84882812 0.4071875 -6.57265625 0.314375 -5.2578125 0.21875 C-3.50763316 0.10123196 -1.75412035 0 0 0 Z " fill="#212444" transform="translate(767,118)"/>
<path d="M0 0 C3.63 0 7.26 0 11 0 C11 0.66 11 1.32 11 2 C8.03 2 5.06 2 2 2 C2 4.97 2 7.94 2 11 C5.3 11 8.6 11 12 11 C12 11.33 12 11.66 12 12 C8.04 12 4.08 12 0 12 C0 8.04 0 4.08 0 0 Z " fill="#2A2D50" transform="translate(840,142)"/>
<path d="M0 0 C5.28 0 10.56 0 16 0 C16 3.96 16 7.92 16 12 C15.34 12 14.68 12 14 12 C14 8.7 14 5.4 14 2 C9.71 2 5.42 2 1 2 C0.67 1.34 0.34 0.68 0 0 Z " fill="#333653" transform="translate(865,142)"/>
<path d="M0 0 C0.33 1.32 0.66 2.64 1 4 C-8.24 4 -17.48 4 -27 4 C-27 3.67 -27 3.34 -27 3 C-26.2886792 2.98018066 -25.5773584 2.96036133 -24.84448242 2.93994141 C-21.62511184 2.84475133 -18.4063955 2.73504771 -15.1875 2.625 C-14.06794922 2.5940625 -12.94839844 2.563125 -11.79492188 2.53125 C-10.72177734 2.49257812 -9.64863281 2.45390625 -8.54296875 2.4140625 C-7.0583313 2.36693115 -7.0583313 2.36693115 -5.54370117 2.31884766 C-2.75924906 2.16226567 -2.75924906 2.16226567 0 0 Z " fill="#BBBECF" transform="translate(930,165)"/>
<path d="M0 0 C4.62 0 9.24 0 14 0 C13.67 1.65 13.34 3.3 13 5 C12.34 4.67 11.68 4.34 11 4 C11 3.34 11 2.68 11 2 C7.04 2 3.08 2 -1 2 C-0.67 1.34 -0.34 0.68 0 0 Z " fill="#0A0E35" transform="translate(597,143)"/>
<path d="M0 0 C2.97 0 5.94 0 9 0 C9 2.97 9 5.94 9 9 C7 6 7 6 7 2 C4.36 2 1.72 2 -1 2 C-0.67 1.34 -0.34 0.68 0 0 Z " fill="#121543" transform="translate(395,141)"/>
<path d="M0 0 C4.29 0 8.58 0 13 0 C13 0.99 13 1.98 13 3 C11.20759337 2.88610125 9.41605165 2.75852313 7.625 2.625 C6.12839844 2.52058594 6.12839844 2.52058594 4.6015625 2.4140625 C2 2 2 2 0 0 Z " fill="#1B1E51" transform="translate(801,141)"/>
</svg>
